<svg width="331" height="329" viewBox="0 0 331 329" fill="none" xmlns="http://www.w3.org/2000/svg">
<path d="M250.955 19.7757C262.05 35.6595 249.041 61.4123 265.505 73.3586C281.532 84.9877 301.221 65.9267 316.324 75.9366C338.73 90.7864 334.639 158.734 301.88 200.951C292.028 213.647 283.796 218.587 280.15 232.945C272.321 263.777 299.835 282.118 294.599 297.366C282.81 331.701 101.501 360.513 28.753 257.324C-5.22362 209.131 -10.3079 139.54 20.0497 86.6844C74.9051 -8.82406 226.057 -15.8671 250.955 19.7746V19.7757Z" fill="#F4F7FA"/>
<path d="M149.962 134.466C141.763 129.448 130.538 120.865 123.373 106.925C113.976 88.6414 119.819 77.2062 112.122 44.5491C107.255 23.9006 103.65 9.5396 91.5744 3.96182C82.112 -0.409222 68.5806 1.13826 61.6868 8.43744C55.9551 14.5064 54.142 25.2636 54.4311 32.6133C54.6673 38.6035 56.3135 42.6467 53.6086 46.3891C50.8438 50.2138 46.7959 49.2127 44.0851 52.1819C38.5884 58.2051 45.5492 72.9373 46.6737 75.3179C59.1887 101.804 88.779 115.281 101.757 121.005C112.487 125.738 128.792 131.628 149.963 134.466H149.962Z" fill="url(#paint0_linear_3_1162)"/>
<mask id="mask0_3_1162" style="mask-type:luminance" maskUnits="userSpaceOnUse" x="41" y="1" width="109" height="134">
<path d="M149.962 134.467C141.763 129.449 130.538 120.866 123.373 106.926C113.976 88.6423 119.819 77.2071 112.122 44.55C107.255 23.9016 103.65 9.54058 91.5744 3.9628C82.112 -0.408245 68.5806 1.13924 61.6868 8.43841C55.9551 14.5073 54.142 25.2646 54.4311 32.6143C54.6673 38.6045 56.3135 42.6477 53.6086 46.3901C50.8438 50.2148 46.7959 49.2137 44.0851 52.1829C38.5884 58.206 45.5492 72.9383 46.6737 75.3189C59.1887 101.805 88.779 115.282 101.757 121.006C112.487 125.739 128.792 131.629 149.963 134.467H149.962Z" fill="white"/>
</mask>
<g mask="url(#mask0_3_1162)">
<g style="mix-blend-mode:soft-light" opacity="0.5">
<path d="M158.855 138.103C145.935 136.035 134.5 132.743 124.867 128.318C110.596 121.763 100.712 112.877 95.4881 101.911C91.4037 93.337 90.1958 83.3917 88.6671 70.7991C87.3993 60.3626 87.4428 52.859 87.4804 46.2402C87.5297 37.6779 87.5685 30.9133 84.6697 21.7553C81.724 12.4468 76.6256 3.64013 69.5156 -4.42045L70.1207 -4.95508C77.3048 3.19128 82.4596 12.0955 85.4394 21.5109C88.3757 30.7911 88.337 37.6109 88.2876 46.2449C88.25 52.8402 88.2065 60.3168 89.4685 70.7027C91.0489 83.7113 92.1898 93.1102 96.2178 101.564C107.17 124.556 136.396 133.692 158.983 137.306L158.855 138.104V138.103Z" fill="white"/>
<path d="M88.1719 63.5988L87.9557 63.197C78.6084 45.8409 66.3178 36.3139 57.6521 31.3777C48.2591 26.0267 40.9799 24.7659 40.9082 24.7541L41.041 23.9575C41.115 23.9692 48.5058 25.2453 58.0175 30.6574C66.7162 35.6065 79.0244 45.1218 88.4433 62.4015C89.8369 61.3252 94.9646 57.1022 99.4919 49.9746C104.347 42.3311 109.489 29.6798 106.407 12.8195L107.201 12.6738C110.333 29.8067 105.098 42.6648 100.155 50.4352C94.7989 58.8541 88.6066 63.2886 88.5443 63.3333L88.1719 63.5965V63.5988Z" fill="white"/>
<path d="M92.483 91.5345L92.1904 91.511C82.5894 90.7308 70.1707 82.4587 55.2798 66.9239C44.2218 55.3865 35.8569 43.9277 35.7734 43.8126L36.4267 43.3379C36.7569 43.7914 69.5139 88.4983 91.966 90.6803C92.7321 88.8954 97.2148 78.6975 103.549 69.2457C110.537 58.8187 129.7 51.8426 130.512 51.5512L130.785 52.3115C130.589 52.382 111.059 59.4908 104.219 69.6958C97.3288 79.9771 92.6416 91.1526 92.5946 91.2643L92.4818 91.5357L92.483 91.5345Z" fill="white"/>
<path d="M113.946 126.758C109.526 126.758 103.167 126.523 95.7796 125.549C82.6524 123.819 63.4938 119.337 46.771 107.809L14.5264 85.5797L14.9846 84.9147L47.2293 107.144C76.5317 127.343 113.742 126.136 119.645 125.8C112.67 117.524 111.518 107.189 116.321 95.8564C120.02 87.1284 126.01 80.7998 126.07 80.7363L126.654 81.2945C126.595 81.3567 120.695 87.5949 117.056 96.1913C112.204 107.653 113.458 117.643 120.783 125.881L121.317 126.483L120.516 126.552C120.467 126.557 118.035 126.758 113.946 126.758Z" fill="white"/>
</g>
</g>
<path d="M169.771 223.359C145.753 227.593 114.552 229.561 82.9428 221.253C74.8764 219.133 25.0441 206.035 26.9406 184.027C27.6092 176.276 34.1317 173.965 35.2057 163.615C36.4782 151.353 28.1356 146.748 20.5685 133.015C16.053 124.821 2.8376 100.841 15.7169 84.1432C23.4132 74.165 40.0808 67.2395 53.8026 68.0855C73.9305 69.3263 83.7783 87.0466 99.9241 117.317C114.236 144.151 112.978 151.545 123.622 170.689C131.521 184.896 145.099 203.998 169.771 223.36V223.359Z" fill="url(#paint1_linear_3_1162)"/>
<mask id="mask1_3_1162" style="mask-type:luminance" maskUnits="userSpaceOnUse" x="10" y="68" width="160" height="160">
<path d="M169.774 223.357C145.756 227.591 114.555 229.559 82.9458 221.251C74.8793 219.131 25.0471 206.033 26.9435 184.025C27.6121 176.274 34.1346 173.963 35.2086 163.613C36.4811 151.351 28.1385 146.746 20.5715 133.013C16.0559 124.819 2.84053 100.839 15.7198 84.1412C23.4162 74.163 40.0837 67.2375 53.8055 68.0835C73.9334 69.3243 83.7812 87.0447 99.927 117.315C114.239 144.149 112.981 151.543 123.625 170.687C131.524 184.894 145.102 203.996 169.774 223.358V223.357Z" fill="white"/>
</mask>
<g mask="url(#mask1_3_1162)">
<g style="mix-blend-mode:soft-light" opacity="0.5">
<path d="M207.656 228.182C204.335 228.182 201.021 228.068 197.71 227.839C163.946 225.507 132.53 210.85 104.333 184.278C75.0191 156.652 56.5256 123.06 46.1725 99.7431C38.9615 83.5021 36.6138 64.582 39.1942 43.5059L39.9955 43.6046C37.4328 64.5327 39.7605 83.3105 46.9105 99.4153C59.5031 127.778 107.599 220.803 197.765 227.033C222.967 228.775 248.499 223.84 273.652 212.366L273.987 213.1C252.013 223.124 229.745 228.181 207.654 228.181L207.656 228.182Z" fill="white"/>
<path d="M71.4652 144.897L71.1315 144.754C13.6417 120.017 7.64448 81.3937 7.17565 70.1453C7.16625 69.9197 7.16155 69.774 7.15332 69.7141L7.9488 69.5742C7.9629 69.6553 7.96878 69.7763 7.98288 70.1124C8.44584 81.2198 14.3667 119.311 71.1127 143.867C72.0516 142.108 76.5953 133.234 79.5093 120.99C82.5009 108.42 84.3363 89.6211 76.0983 71.4448L76.8339 71.1111C85.1706 89.5036 83.3152 108.501 80.2896 121.201C77.0148 134.948 71.6967 144.487 71.6438 144.582L71.4652 144.898V144.897Z" fill="white"/>
<path d="M66.9515 190.269C55.0333 190.269 45.6368 188.075 38.763 185.547C24.7333 180.389 17.8807 172.743 17.8125 172.667L18.4176 172.132C18.4846 172.208 25.2327 179.724 39.0908 184.807C51.8561 189.49 73.4305 193.005 103.789 183.204C104.525 180.401 112.085 149.818 102.752 112.129L92.864 72.1987L93.6478 72.0049L103.535 111.935C113.336 151.511 104.6 183.314 104.511 183.631L104.452 183.839L104.246 183.906C89.8713 188.57 77.4349 190.269 66.9503 190.269H66.9515Z" fill="white"/>
</g>
</g>
<path d="M98.5016 13.749H199.127C203.939 13.749 207.845 17.6548 207.845 22.4664V175.419C207.845 180.231 203.939 184.136 199.127 184.136H98.5016C93.6899 184.136 89.7842 180.231 89.7842 175.419V22.4664C89.7842 17.6548 93.6899 13.749 98.5016 13.749Z" fill="url(#paint2_linear_3_1162)"/>
<path d="M199.127 180.228H98.5009C95.8489 180.228 93.6904 178.07 93.6904 175.417V22.4658C93.6904 19.8138 95.8477 17.6553 98.5009 17.6553H199.127C201.779 17.6553 203.937 19.8126 203.937 22.4658V175.417C203.937 178.069 201.78 180.228 199.127 180.228ZM98.5021 19.3132C96.7643 19.3132 95.3495 20.7279 95.3495 22.4658V175.417C95.3495 177.155 96.7643 178.57 98.5021 178.57H199.128C200.866 178.57 202.28 177.155 202.28 175.417V22.4658C202.28 20.7279 200.866 19.3132 199.128 19.3132H98.5021Z" fill="url(#paint3_linear_3_1162)"/>
<path d="M116.066 43.0813H105.363L102.941 49.6614H99.4141L109.292 24.1143H112.258L121.979 49.6614H118.452L116.065 43.0813H116.066ZM106.434 40.1861H115.031L110.82 28.5523H110.714L106.434 40.1861Z" fill="url(#paint4_linear_3_1162)"/>
<path d="M192.301 167.191H181.598L179.176 173.771H175.648L185.527 148.224H188.492L198.213 173.771H194.686L192.3 167.191H192.301ZM182.668 164.295H191.266L187.054 152.662H186.949L182.668 164.295Z" fill="url(#paint5_linear_3_1162)"/>
<g style="mix-blend-mode:soft-light">
<path d="M143.267 105.479C130.995 83.6881 143.18 68.3307 132.257 41.1926C127.645 29.7339 120.74 20.7145 113.721 13.749H98.5026C93.6885 13.749 89.7852 17.6524 89.7852 22.4664V175.417C89.7852 180.231 93.6885 184.134 98.5026 184.134H199.128C199.829 184.134 200.51 184.049 201.163 183.893C200.203 162.684 193.636 149.684 186.954 141.351C171.776 122.423 154.976 126.268 143.268 105.477L143.267 105.479Z" fill="white"/>
</g>
<path d="M247.172 40.0926L149.975 14.0485C145.324 12.8018 140.544 15.5619 139.298 20.2126L99.7111 167.953C98.4656 172.603 101.225 177.383 105.875 178.629L203.072 204.673C207.723 205.918 212.503 203.16 213.748 198.509L253.336 50.7687C254.581 46.118 251.822 41.3381 247.172 40.0926Z" fill="url(#paint6_linear_3_1162)"/>
<path d="M204.085 200.898L106.888 174.854C104.327 174.168 102.8 171.525 103.487 168.962L143.074 21.2222C143.76 18.6607 146.403 17.1343 148.965 17.8206L246.162 43.8647C248.724 44.5509 250.25 47.1935 249.564 49.7562L209.977 197.496C209.29 200.058 206.648 201.584 204.085 200.898ZM148.537 19.4233C146.857 18.9732 145.125 19.9732 144.675 21.6523L105.088 169.392C104.638 171.071 105.638 172.803 107.317 173.253L204.514 199.298C206.193 199.748 207.925 198.748 208.375 197.069L247.962 49.3285C248.412 47.6494 247.413 45.9174 245.733 45.4674L148.537 19.4233Z" fill="url(#paint7_linear_3_1162)"/>
<path d="M159.349 46.9286L149.01 44.1579L144.968 49.8873L141.562 48.9743L157.716 26.8535L160.58 27.6208L163.358 54.8141L159.952 53.9011L159.35 46.9274L159.349 46.9286ZM150.794 41.6387L159.099 43.8642L158.042 31.5371L157.94 31.5101L150.794 41.6387Z" fill="url(#paint8_linear_3_1162)"/>
<path d="M200.864 186.539L190.526 183.768L186.484 189.498L183.077 188.585L199.231 166.464L202.096 167.231L204.874 194.424L201.467 193.511L200.866 186.538L200.864 186.539ZM192.309 181.249L200.614 183.474L199.558 171.147L199.456 171.12L192.309 181.249Z" fill="url(#paint9_linear_3_1162)"/>
<g style="mix-blend-mode:soft-light">
<path d="M169.473 114.24C163.259 90.0157 179.004 78.3361 175.476 49.2945C173.986 37.0332 169.65 26.5333 164.675 17.9886L149.975 14.05C145.324 12.8045 140.544 15.5634 139.298 20.2141L99.7111 167.954C98.4656 172.605 101.225 177.385 105.875 178.63L203.072 204.674C203.749 204.855 204.428 204.949 205.1 204.968C209.662 184.233 206.683 169.976 202.386 160.198C192.624 137.988 175.402 137.353 169.473 114.241V114.24Z" fill="white"/>
</g>
<path d="M284.383 82.6659L197.238 32.3531C193.069 29.9455 187.737 31.3743 185.331 35.5445L108.855 168.005C106.447 172.174 107.876 177.506 112.046 179.912L199.191 230.225C203.36 232.633 208.692 231.204 211.099 227.035L287.574 94.5747C289.982 90.4057 288.553 85.0735 284.384 82.6671L284.383 82.6659Z" fill="url(#paint10_linear_3_1162)"/>
<path d="M201.142 226.841L113.999 176.529C111.702 175.202 110.912 172.255 112.239 169.958L188.714 37.4978C190.041 35.2006 192.988 34.411 195.285 35.7376L282.43 86.0504C284.727 87.377 285.516 90.3239 284.19 92.6211L207.714 225.081C206.388 227.378 203.441 228.168 201.143 226.841H201.142ZM194.455 37.1735C192.95 36.3039 191.018 36.8221 190.149 38.3273L113.673 170.788C112.804 172.293 113.322 174.224 114.827 175.094L201.972 225.407C203.477 226.276 205.409 225.758 206.278 224.253L282.754 91.7927C283.623 90.2875 283.105 88.3558 281.6 87.4863L194.456 37.1735H194.455Z" fill="url(#paint11_linear_3_1162)"/>
<path d="M197.783 66.5388L188.513 61.1866L183.127 65.674L180.073 63.9103L201.402 46.7246L203.971 48.2075L199.615 75.1928L196.561 73.4291L197.784 66.5377L197.783 66.5388ZM190.888 59.215L198.334 63.5132L200.504 51.333L200.413 51.2801L190.888 59.2138V59.215Z" fill="url(#paint12_linear_3_1162)"/>
<path d="M201.75 212.138L192.48 206.786L187.094 211.274L184.04 209.51L205.369 192.324L207.937 193.807L203.582 220.792L200.528 219.029L201.751 212.137L201.75 212.138ZM194.855 204.815L202.301 209.113L204.471 196.933L204.379 196.88L194.855 204.813V204.815Z" fill="url(#paint13_linear_3_1162)"/>
<g style="mix-blend-mode:soft-light">
<path d="M190.14 134.176C190.408 109.17 208.639 101.962 212.748 72.9968C214.483 60.7672 213.013 49.5036 210.418 39.9625L197.238 32.3531C193.069 29.9455 187.737 31.3743 185.331 35.5445L108.855 168.005C106.447 172.174 107.876 177.506 112.046 179.912L199.191 230.225C199.799 230.575 200.43 230.842 201.074 231.033C210.846 212.185 211.659 197.643 210.039 187.086C206.359 163.106 189.886 158.036 190.141 134.176H190.14Z" fill="white"/>
</g>
<path d="M317.116 135.084L245.963 63.9309C242.559 60.5269 237.038 60.5269 233.634 63.9309L125.482 172.084C122.078 175.488 122.078 181.008 125.482 184.412L196.635 255.565C200.039 258.969 205.559 258.969 208.963 255.565L317.116 147.412C320.52 144.008 320.52 138.488 317.116 135.084Z" fill="url(#paint14_linear_3_1162)"/>
<path d="M199.397 252.802L128.244 181.649C126.369 179.774 126.369 176.723 128.244 174.847L236.397 66.6946C238.272 64.8193 241.324 64.8193 243.199 66.6946L314.352 137.847C316.227 139.723 316.227 142.774 314.352 144.65L206.199 252.802C204.324 254.678 201.273 254.678 199.397 252.802ZM242.028 67.8661C240.799 66.637 238.799 66.637 237.57 67.8661L129.417 176.019C128.188 177.248 128.188 179.248 129.417 180.477L200.57 251.63C201.799 252.859 203.799 252.859 205.028 251.63L313.181 143.477C314.41 142.248 314.41 140.248 313.181 139.019L242.028 67.8661Z" fill="url(#paint15_linear_3_1162)"/>
<path d="M237.642 97.0923L230.073 89.5241L223.708 92.4651L221.215 89.9718L246.265 78.8926L248.362 80.99L237.17 105.928L234.677 103.435L237.643 97.0947L237.642 97.0923ZM232.878 88.2339L238.958 94.3134L244.206 83.1097L244.132 83.0357L232.879 88.2339H232.878Z" fill="url(#paint16_linear_3_1162)"/>
<path d="M203.788 238.757L196.22 231.189L189.855 234.13L187.361 231.637L212.411 220.558L214.509 222.655L203.318 247.593L200.825 245.1L203.79 238.76L203.788 238.757ZM199.024 229.899L205.104 235.978L210.353 224.775L210.279 224.701L199.026 229.899H199.024Z" fill="url(#paint17_linear_3_1162)"/>
<path d="M247.624 155.864C239.321 147.517 227.368 153.68 227.368 153.68C227.368 153.68 233.531 141.726 225.184 133.424C213.014 121.319 195.066 150.332 206.194 174.853C230.716 185.983 259.728 168.034 247.624 155.864Z" fill="url(#paint18_linear_3_1162)"/>
<g style="mix-blend-mode:soft-light">
<path d="M212.752 160.448C219.483 136.362 238.958 134.119 250.424 107.204C255.265 95.8407 256.76 84.5794 256.723 74.6917L245.963 63.9309C242.559 60.5269 237.038 60.5269 233.634 63.9309L125.482 172.084C122.078 175.488 122.078 181.008 125.482 184.412L196.635 255.565C197.13 256.061 197.672 256.481 198.244 256.833C212.562 241.157 217.111 227.32 218.278 216.704C220.929 192.588 206.331 183.427 212.753 160.446L212.752 160.448Z" fill="white"/>
</g>
<path d="M111.063 272.712C110.617 273.122 110.589 274.08 110.571 274.706C110.563 274.986 110.558 275.126 110.596 275.222C110.866 275.925 112.261 275.915 114.455 276.006C117.921 276.148 118.962 276.356 119.2 275.827C119.424 275.331 118.765 274.582 118.69 274.5C118.292 274.055 117.827 273.914 116.931 273.678C115.274 273.242 114.157 273.017 113.82 272.947C111.71 272.52 111.357 272.442 111.065 272.711L111.063 272.712Z" fill="url(#paint19_linear_3_1162)"/>
<path d="M113.496 269.258L113.631 273.204C113.523 273.388 112.326 273.894 111.424 273.357L110.744 269.449L113.496 269.258Z" fill="url(#paint20_linear_3_1162)"/>
<path d="M140.261 272.168C139.665 272.759 139.476 273.898 139.936 274.488C140.387 275.068 141.133 274.691 143.181 274.861C145.375 275.045 145.921 275.594 147.437 275.262C148.049 275.128 149.136 274.78 149.14 274.348C149.142 274.045 148.607 273.859 146.828 273.155C144.303 272.156 144.316 272.109 143.776 271.991C142.416 271.69 141.051 271.388 140.264 272.169L140.261 272.168Z" fill="url(#paint21_linear_3_1162)"/>
<path d="M141.861 268.658L142.767 272.383C142.673 272.576 141.518 273.171 140.578 272.705L139.132 269.059L141.861 268.658Z" fill="url(#paint22_linear_3_1162)"/>
<path d="M136.357 187.839C135.856 200.168 135.957 214.067 137.171 229.226C138.371 244.209 140.447 257.799 142.864 269.782C141.437 270.085 140.011 270.388 138.584 270.691C135.195 267.174 130.974 261.698 129.197 254.181C128.095 249.516 128.67 247.18 128.116 241.485C127.235 232.418 124.73 227.558 122.267 220.152C120.055 213.496 117.538 203.77 116.598 190.896C123.184 189.877 129.77 188.858 136.355 187.839H136.357Z" fill="url(#paint23_linear_3_1162)"/>
<path style="mix-blend-mode:multiply" opacity="0.3" d="M134.387 245.462C132.816 239.242 129.79 237.597 129.682 231.726C129.606 227.574 131.098 227.234 131 223.258C130.849 217.228 127.317 214.067 125.543 210.274C123.669 206.269 111.548 201.599 116.599 190.897C112.797 191.486 120.4 190.31 116.599 190.897C117.539 203.77 120.055 213.498 122.268 220.152C124.731 227.559 127.236 232.418 128.117 241.486C128.671 247.181 128.095 249.517 129.198 254.182C130.975 261.699 135.195 267.175 138.585 270.692C138.948 270.615 139.312 270.538 139.673 270.461C136.009 266.086 134.716 262.18 134.387 259.01C133.852 253.853 135.971 251.733 134.387 245.462Z" fill="url(#paint24_linear_3_1162)"/>
<path d="M122.099 187.068C120.401 202.692 118.841 218.617 117.438 234.834C116.384 247.002 115.446 259.022 114.615 270.889C113.17 270.99 111.724 271.09 110.277 271.191C109.027 268.533 107.395 264.484 106.402 259.351C105.197 253.119 105.746 249.486 105.415 243.076C105.043 235.886 104.029 234.271 102.568 225.149C99.6035 206.636 98.1218 197.379 102.823 191.921C104.349 190.149 109.071 185.752 122.099 187.068Z" fill="url(#paint25_linear_3_1162)"/>
<path d="M76.9959 121.477C76.9959 121.477 76.9736 121.414 76.9348 121.298C76.6822 120.543 75.7234 117.54 75.6023 115.132C75.4954 113.006 75.0454 115.603 74.8409 116.937C74.7904 117.265 74.4661 117.193 74.1406 117.256C73.4474 117.394 72.8152 116.967 71.9316 116.467C70.907 115.885 69.7578 114.752 69.3278 114.711C68.2879 114.613 68.5605 116.697 69.9811 117.569C74.1547 120.134 75.8373 122.564 75.8373 122.564L76.9736 121.412L76.9959 121.476V121.477Z" fill="url(#paint26_linear_3_1162)"/>
<path d="M171.061 120.068C171.061 120.068 171.083 120.004 171.122 119.889C171.374 119.134 172.333 116.13 172.454 113.723C172.561 111.597 173.011 114.194 173.216 115.528C173.266 115.855 173.59 115.784 173.916 115.847C174.609 115.985 175.241 115.558 176.125 115.058C177.149 114.476 178.299 113.343 178.729 113.302C179.769 113.203 179.496 115.287 178.075 116.16C173.902 118.725 172.219 121.155 172.219 121.155L171.083 120.003L171.061 120.067V120.068Z" fill="url(#paint27_linear_3_1162)"/>
<path d="M78.2706 119.858C82.5347 124.821 91.0805 133.32 104.553 138.341C109.988 140.367 127.435 146.869 146.445 138.886C159.523 133.394 166.869 123.764 169.972 119.067C171.079 119.588 172.186 120.107 173.294 120.628C173.734 126.153 173.353 133.582 168.959 139.842C163.934 147.002 157.099 145.067 148.071 153.683C145.999 155.661 141.061 160.475 138.241 168.11C135.233 176.254 135.757 184.568 136.216 191.871C136.828 201.593 138.492 204.851 136.115 207.125C134.588 208.586 132.902 208.198 119.953 207.738C113.104 207.495 112.637 207.572 109.363 207.326C100.929 206.694 97.1894 205.681 93.984 204.275C91.0747 202.998 89.6059 202.369 88.7834 200.952C86.572 197.141 90.0125 192.073 93.6045 184.702C99.5324 172.54 103.657 164.08 101.142 157.197C99.0965 151.595 94.3811 151.757 87.3863 145.037C79.8545 137.801 76.4822 129.117 74.8125 122.981C75.9652 121.941 77.1179 120.902 78.2706 119.862V119.858Z" fill="url(#paint28_linear_3_1162)"/>
<path style="mix-blend-mode:multiply" opacity="0.3" d="M102.073 192.569C103.016 176.592 118.898 166.399 115.363 160.354C113.353 156.914 107.716 159.367 103.174 154.199C99.7462 150.3 101.892 147.696 99.1834 142.874C94.4775 134.495 84.8835 136.799 78.8146 128.572C77.7665 127.151 76.5738 125.076 75.8124 122.075C75.4787 122.376 75.1462 122.677 74.8125 122.978C76.4822 129.114 79.8545 137.796 87.3863 145.034C94.38 151.754 99.0965 151.593 101.142 157.193C103.657 164.077 99.5324 172.537 93.6045 184.699C90.0125 192.068 86.572 197.137 88.7822 200.948C90.1029 203.224 92.8019 203.952 93.9828 204.271C97.368 205.184 100.529 204.533 103.651 203.256C102.585 200.208 101.837 196.579 102.073 192.569Z" fill="url(#paint29_linear_3_1162)"/>
<path d="M125.509 134.052C125.509 134.052 123.608 141.888 120.332 141.903L117.056 141.918L126.879 147.51L132.244 142.884L128.152 141.597L128.38 135.932L125.51 134.052H125.509Z" fill="url(#paint30_linear_3_1162)"/>
<path d="M129.565 128.657C129.565 128.657 130.199 129.476 130.501 131.872C130.803 134.267 129.743 138.961 129.267 139.276C128.791 139.591 125.863 139.571 124.609 135.933L122.529 132.165L129.565 128.657Z" fill="url(#paint31_linear_3_1162)"/>
<path d="M125.526 135.226C125.911 134.655 124.492 133.719 124.858 132.605C125.086 131.913 125.8 131.772 128.37 130.558C130.669 129.473 131.024 129.149 131.058 128.767C131.14 127.818 129.188 126.985 129.308 126.751C129.455 126.467 132.183 128.029 132.788 127.361C133.207 126.899 132.663 125.316 131.558 124.439C130.907 123.922 129.98 123.583 124.526 124.342C120.754 124.867 120.084 125.185 119.484 125.746C118.393 126.767 117.484 128.646 118.1 129.822C118.812 131.182 121.175 130.86 121.526 132.181C121.705 132.855 121.143 133.148 121.33 133.822C121.738 135.296 125.005 135.999 125.526 135.227V135.226Z" fill="url(#paint32_linear_3_1162)"/>
<path d="M125.333 135.932L124.271 133.842C124.271 133.842 122.554 133.195 122.741 134.051C122.926 134.908 124.019 135.774 125.333 135.931V135.932Z" fill="url(#paint33_linear_3_1162)"/>
<path d="M69.2657 121.808C68.5748 122.488 67.4585 122.48 66.777 121.789L59.4238 114.325C58.7435 113.634 58.7517 112.518 59.4426 111.837L63.0029 108.329C63.6938 107.649 64.8101 107.657 65.4916 108.348L72.8448 115.812C73.5263 116.502 73.5169 117.619 72.826 118.3L69.2657 121.808Z" fill="url(#paint34_linear_3_1162)"/>
<path d="M63.2876 108.618L59.7273 112.125C59.1939 112.65 59.188 113.509 59.7132 114.043L67.0665 121.506C67.5917 122.04 68.4506 122.046 68.9841 121.52L72.5444 118.013C73.0778 117.488 73.0837 116.629 72.5585 116.095L65.2052 108.632C64.68 108.098 63.8211 108.092 63.2876 108.618Z" fill="url(#paint35_linear_3_1162)"/>
<path d="M67.2407 106.464L62.2854 108.536C61.3215 108.939 60.8668 110.047 61.2698 111.011L65.6138 121.401C66.0168 122.365 67.1249 122.819 68.0889 122.416L73.0442 120.345C74.0081 119.941 74.4628 118.833 74.0598 117.869L69.7158 107.48C69.3128 106.516 68.2046 106.061 67.2407 106.464Z" fill="url(#paint36_linear_3_1162)"/>
<path d="M67.4133 106.856L62.4571 108.929C61.7145 109.239 61.3644 110.093 61.6746 110.836L66.0197 121.227C66.33 121.969 67.1842 122.319 67.9268 122.009L72.883 119.936C73.6256 119.626 73.9758 118.772 73.6656 118.029L69.3204 107.639C69.0102 106.896 68.1559 106.546 67.4133 106.856Z" fill="url(#paint37_linear_3_1162)"/>
<path d="M68.48 121.894C67.4542 122.083 66.4661 121.403 66.2769 120.377L64.2347 109.302C64.0455 108.276 64.7259 107.288 65.7516 107.098L71.0345 106.124C72.0603 105.935 73.0485 106.615 73.2376 107.641L75.2798 118.717C75.469 119.743 74.7887 120.731 73.7629 120.92L68.48 121.894Z" fill="url(#paint38_linear_3_1162)"/>
<path d="M71.1121 106.551L65.8292 107.525C65.0373 107.671 64.5144 108.431 64.6601 109.223L66.7023 120.298C66.848 121.09 67.6082 121.613 68.4002 121.467L73.683 120.493C74.475 120.348 74.9979 119.587 74.8521 118.796L72.81 107.72C72.6643 106.928 71.9041 106.405 71.1121 106.551Z" fill="url(#paint39_linear_3_1162)"/>
<path d="M181.754 287.244C181.537 287.244 181.354 287.079 181.334 286.86L173.662 203.952C173.641 203.72 173.811 203.514 174.044 203.492C174.275 203.473 174.483 203.641 174.504 203.875L181.331 277.654V202.078C181.331 201.844 181.52 201.655 181.754 201.655C181.988 201.655 182.177 201.844 182.177 202.078V286.821C182.177 287.048 182 287.234 181.773 287.244C181.766 287.244 181.76 287.244 181.753 287.244H181.754Z" fill="#B7C0CE"/>
<path opacity="0.81" d="M267.3 211.148L183.137 201.928L21.4473 209.276L106.13 219.417L267.3 211.148Z" fill="#F4F7FA"/>
<path d="M106.13 219.417L267.3 211.148V215.142L106.13 223.411L21.4473 213.27V209.276L106.13 219.417Z" fill="#B7C0CE"/>
<path d="M106.703 316.161C106.703 316.161 106.693 316.161 106.687 316.161C106.46 316.152 106.28 315.966 106.28 315.738V222.439C106.28 222.205 106.469 222.016 106.703 222.016C106.937 222.016 107.126 222.205 107.126 222.439V304.896L113.577 222.406C113.596 222.173 113.797 221.999 114.032 222.017C114.264 222.036 114.44 222.239 114.421 222.472L107.125 315.771C107.107 315.992 106.923 316.161 106.703 316.161Z" fill="#B7C0CE"/>
<path d="M22.3722 299.587C22.3722 299.587 22.3605 299.587 22.3558 299.587C22.129 299.578 21.9492 299.392 21.9492 299.164V213.05C21.9492 212.816 22.1384 212.627 22.3722 212.627C22.6061 212.627 22.7952 212.816 22.7952 213.05V288.367L28.7114 213.017C28.7302 212.785 28.937 212.61 29.1661 212.628C29.3988 212.647 29.5727 212.85 29.5551 213.083L22.7941 299.197C22.7764 299.418 22.592 299.587 22.3722 299.587Z" fill="#B7C0CE"/>
<path d="M266.503 299.587C266.285 299.587 266.1 299.419 266.081 299.2L258.902 213.085C258.882 212.853 259.056 212.648 259.289 212.628C259.522 212.61 259.726 212.782 259.746 213.015L266.08 288.994V215.142C266.08 214.908 266.269 214.719 266.503 214.719C266.737 214.719 266.926 214.908 266.926 215.142V299.164C266.926 299.391 266.747 299.578 266.521 299.587C266.515 299.587 266.509 299.587 266.503 299.587Z" fill="#B7C0CE"/>
<path d="M87.2681 206.438C86.3163 206.626 85.3893 206.004 85.2013 205.053L83.1732 194.773C82.9852 193.821 83.6068 192.894 84.5585 192.706L89.4618 191.739C90.4136 191.551 91.3407 192.172 91.5287 193.124L93.5568 203.404C93.7448 204.356 93.1232 205.283 92.1714 205.471L87.2681 206.438Z" fill="url(#paint40_linear_3_1162)"/>
<path d="M89.5392 192.135L84.6358 193.102C83.9015 193.247 83.4232 193.96 83.5678 194.694L85.5958 204.974C85.7403 205.709 86.4536 206.187 87.188 206.043L92.0913 205.076C92.8257 204.931 93.3039 204.218 93.1594 203.483L91.1313 193.203C90.9868 192.469 90.2736 191.991 89.5392 192.135Z" fill="url(#paint41_linear_3_1162)"/>
<path d="M85.9565 206.295C84.9319 206.101 84.2563 205.109 84.4502 204.084L86.5452 193.018C86.7391 191.993 87.7308 191.318 88.7554 191.512L94.0336 192.51C95.0582 192.704 95.7338 193.696 95.5399 194.721L93.4461 205.787C93.2522 206.812 92.2605 207.487 91.2359 207.293L85.9577 206.295H85.9565Z" fill="url(#paint42_linear_3_1162)"/>
<path d="M84.8814 204.177L86.9763 193.111C87.1258 192.321 87.8892 191.801 88.6789 191.95L93.9573 192.95C94.7481 193.099 95.2674 193.863 95.1179 194.652L93.0229 205.718C92.8732 206.509 92.11 207.028 91.3203 206.879L86.0419 205.879C85.2511 205.73 84.7319 204.966 84.8814 204.177Z" fill="url(#paint43_linear_3_1162)"/>
<path d="M86.5633 206.075C85.6033 205.669 85.1533 204.556 85.5599 203.596L89.9532 193.225C90.3598 192.265 91.4725 191.815 92.4325 192.222L97.3793 194.318C98.3393 194.725 98.7893 195.838 98.3828 196.798L93.9894 207.168C93.5829 208.128 92.4701 208.578 91.5101 208.172L86.5633 206.075Z" fill="url(#paint44_linear_3_1162)"/>
<path d="M97.2103 194.718L92.2635 192.622C91.5221 192.308 90.6667 192.653 90.3529 193.395L85.9596 203.765C85.6458 204.507 85.9913 205.362 86.7327 205.676L91.6795 207.772C92.421 208.086 93.2764 207.741 93.5901 206.999L97.9835 196.628C98.2972 195.887 97.9517 195.032 97.2103 194.718Z" fill="url(#paint45_linear_3_1162)"/>
<path d="M89.6873 290.992C89.5475 290.223 87.0659 289.528 85.8368 290.557C85.227 291.068 84.8063 292.105 85.1588 292.572C85.2869 292.743 84.7605 293.042 85.2657 293.048C86.9378 293.068 89.8271 291.756 89.6873 290.992Z" fill="url(#paint46_linear_3_1162)"/>
<path d="M86.9743 290.995L84.3987 291.124C85.2906 289.502 84.2178 285.09 84.2178 285.09L86.999 285.172C86.999 285.172 86.9309 286.453 86.7605 288.355C86.7029 289.006 86.8098 289.987 86.9732 290.995H86.9743Z" fill="url(#paint47_linear_3_1162)"/>
<path d="M87.3139 290.958C87.3139 290.958 84.24 290.249 83.9075 290.859C83.575 291.469 83.3165 293.101 85.267 293.048C87.2175 292.995 87.4866 291.473 87.3139 290.956V290.958Z" fill="url(#paint48_linear_3_1162)"/>
<path d="M105.368 294.123C105.123 293.381 102.567 293.039 101.494 294.231C100.962 294.822 100.69 295.907 101.105 296.321C101.257 296.471 100.777 296.842 101.277 296.777C102.935 296.562 105.611 294.858 105.368 294.121V294.123Z" fill="url(#paint49_linear_3_1162)"/>
<path d="M102.348 294.837L99.818 295.334C100.468 293.601 98.7734 289.389 98.7734 289.389L101.537 289.07C101.537 289.07 101.653 290.348 101.758 292.255C101.794 292.908 102.041 293.863 102.348 294.837Z" fill="url(#paint50_linear_3_1162)"/>
<path d="M103.011 294.42C103.011 294.42 99.8674 294.149 99.6241 294.8C99.3797 295.45 99.3527 297.103 101.276 296.777C103.2 296.452 103.254 294.908 103.011 294.42Z" fill="url(#paint51_linear_3_1162)"/>
<path d="M95.3369 209.208L95.6623 206.21L97.3896 202.918C97.6246 202.469 97.748 201.971 97.748 201.464V198.195L95.6635 203.016C95.6635 203.016 94.2958 201.778 93.7741 201.518C93.2524 201.257 93.3182 202.3 93.7095 202.691C94.1008 203.082 93.5144 206.275 93.9045 206.6L93.7741 208.555L95.338 209.208H95.3369Z" fill="white"/>
<path d="M78.7866 190.116C77.1651 186.152 73.6847 183.871 71.8799 182.689C67.6099 179.891 64.8756 180.402 55.0702 178.91C42.0017 176.922 40.4366 175.037 36.0444 176.565C30.2751 178.57 27.2612 183.807 25.8805 186.208C18.9186 198.307 27.0579 204.457 24.9687 228.559C24.1156 238.402 21.9266 246.956 27.1836 252.014C28.2905 253.08 29.5289 253.637 32.0047 254.751C41.8254 259.17 50.631 258.409 55.982 257.879C61.8699 257.296 64.8462 256.962 66.4067 254.881C68.9 251.559 66.3338 247.336 65.885 240.026C65.563 234.778 66.7568 230.62 69.1433 222.303C74.6905 202.969 81.8933 197.712 78.7866 190.116Z" fill="url(#paint52_linear_3_1162)"/>
<path d="M56.9119 171.779C57.5064 169.659 56.4666 167.696 56.2374 167.273C55.2774 165.502 55.0319 165.26 54.5736 164.954L53.9368 164.561C53.9368 164.561 53.9003 164.546 53.8615 164.533C53.4526 164.387 52.0603 164.345 51.7783 164.406C50.877 164.599 49.9182 168.269 50.1908 173.459C50.1532 173.657 50.118 173.857 50.0827 174.058C49.9405 174.878 49.8277 175.68 49.7408 176.466C49.6574 177.217 48.5916 177.201 47.8373 177.153C44.7752 176.957 43.2759 177.217 43.1454 177.674C42.901 178.528 46.533 181.323 51.0192 181.951C57.0388 181.996 61.9351 181.356 61.4087 180.407C61.1748 179.987 56.5112 178.768 55.1999 177.56C53.999 176.455 54.0966 175.312 53.9979 174.495C54.3621 174.305 56.4736 173.342 56.9107 171.78L56.9119 171.779Z" fill="white"/>
<path d="M55.8045 163.086C55.7986 164.694 55.0419 166.412 54.6553 166.688C54.606 166.723 54.3252 166.945 54.0725 167.323C54.0385 167.375 54.0079 167.435 53.9809 167.514C53.6284 168.527 55.2393 169.719 54.9291 170.173C54.7035 170.502 53.6084 170.061 53.478 170.345C53.3558 170.613 54.2652 171.167 54.1266 171.488C54.022 171.73 53.4615 171.509 53.1078 171.879C52.9316 172.063 52.9833 172.21 52.7965 172.774C52.6907 173.093 52.5438 173.443 52.4287 173.637C51.8729 174.581 50.2996 174.926 49.9964 174.547C49.9118 174.442 49.9847 174.353 49.8989 174C49.8989 174 49.819 173.672 49.591 173.294C49.2656 172.753 48.4795 172.365 47.6863 171.794C46.2176 170.737 45.8181 169.836 45.6994 169.531C45.6571 169.423 45.6301 169.341 45.6113 169.282C45.2294 168.096 45.2282 166.356 45.7605 165.286C46.6535 163.493 48.6663 164.344 50.3148 162.567C52.216 160.516 51.0833 157.714 52.1161 157.405C53.2535 157.064 55.8139 160.113 55.8045 163.086Z" fill="#26264F"/>
<path d="M54.3512 169.796C53.9575 169.254 53.2643 169.763 53.2608 170.463C53.2561 171.163 53.9352 171.892 54.5944 171.753C55.2536 171.614 54.8823 170.523 54.3512 169.794V169.796Z" fill="white"/>
<path d="M54.0314 168.623L54.9456 169.812C54.9456 169.812 55.9314 171.269 56.5072 170.471C56.9772 169.819 57.0994 169.833 57.1276 169.86C57.1335 169.865 57.1347 169.873 57.1358 169.873C57.1441 169.871 57.0665 169.549 56.9972 169.265C57.2404 169.614 57.5765 170.181 57.7786 170.944C57.976 171.684 58.1875 172.477 57.7692 173.24C57.7445 173.283 57.2851 174.095 56.4249 174.29C56.4249 174.29 56.0865 174.368 54.6589 174.116C54.6589 174.116 56.2205 172.984 56.244 172.714C56.3086 171.982 55.2934 171.588 54.5402 170.087C54.25 169.508 54.1066 168.984 54.0303 168.623H54.0314Z" fill="#26264F"/>
<path style="mix-blend-mode:multiply" opacity="0.3" d="M50.9012 250.972C52.6332 247.524 48.3891 242.939 51.1621 237.681C53.5168 233.214 57.795 234.216 59.762 230.123C62.1379 225.18 56.9702 221.486 57.1558 213.964C57.3767 204.974 65.113 195.974 69.6662 196.763C72.6119 197.274 72.9903 201.669 75.063 206.479C73.2288 210.5 71.0868 215.539 69.1456 222.304C66.7592 230.621 65.5665 234.78 65.8873 240.027C66.335 247.337 68.9024 251.56 66.409 254.883C64.8474 256.963 61.8723 257.298 55.9843 257.88C50.6333 258.41 41.8278 259.172 32.007 254.752C30.7639 254.193 29.8333 253.774 29.0742 253.361C44.4175 255.665 49.5288 253.709 50.9024 250.974L50.9012 250.972Z" fill="url(#paint53_linear_3_1162)"/>
<path d="M95.9237 208.622C94.9684 208.21 94.0119 207.797 93.0567 207.384C91.441 209.036 89.3812 210.642 87.6493 210.12C85.0666 209.343 85.7117 204.591 82.5673 196.242C79.0035 186.782 74.9603 184.351 72.924 183.472C71.7866 182.981 71.0005 182.656 70.057 182.886C65.713 183.948 64.2771 195.267 65.4956 203.735C66.1818 208.507 67.5284 217.864 75.2035 222.305C76.294 222.936 82.2947 226.408 88.2344 223.673C93.3081 221.336 96.4442 215.341 95.9225 208.622H95.9237Z" fill="url(#paint54_linear_3_1162)"/>
<path d="M88.6566 285.443C87.068 285.619 85.4793 285.797 83.8919 285.973C81.7463 283.595 78.5444 279.449 76.8324 273.619C73.5542 262.452 78.6866 255.121 75.2438 252.264C71.2746 248.971 63.4338 257.87 46.1235 260.382C40.5528 261.191 28.1846 262.986 23.1802 256.323C21.151 253.621 19.9866 249.068 21.5916 245.204C24.4704 238.277 33.9504 239.109 65.1834 233.026C77.2143 230.683 79.1155 229.916 81.9743 231.28C96.1109 238.028 90.2158 276.188 88.6566 285.442V285.443Z" fill="url(#paint55_linear_3_1162)"/>
<path d="M102.834 289.935C101.246 290.112 99.6571 290.289 98.0696 290.465C95.9241 288.087 92.7221 283.942 91.0102 278.111C87.7319 266.944 92.8643 259.613 89.4216 256.756C85.4524 253.462 77.6115 262.362 60.3012 264.875C54.7305 265.683 42.3623 267.478 37.358 260.815C35.3287 258.114 34.1643 253.56 35.7694 249.696C38.6481 242.769 48.1281 243.601 79.3611 237.518C91.392 235.175 93.2932 234.408 96.152 235.772C110.289 242.52 104.394 280.68 102.834 289.934V289.935Z" fill="url(#paint56_linear_3_1162)"/>
<path d="M48.4617 319.847C63.0103 319.847 74.8043 315.034 74.8043 309.096C74.8043 303.158 63.0103 298.345 48.4617 298.345C33.9131 298.345 22.1191 303.158 22.1191 309.096C22.1191 315.034 33.9131 319.847 48.4617 319.847Z" fill="#B7C0CE"/>
<path d="M22.1191 307.835C22.1191 313.44 33.9127 317.984 48.4617 317.984C63.0107 317.984 74.8043 313.44 74.8043 307.835C74.8043 302.231 63.0107 293.06 48.4617 293.06C33.9127 293.06 22.1191 302.231 22.1191 307.835Z" fill="white"/>
<path style="mix-blend-mode:multiply" opacity="0.3" d="M22.1191 307.835C22.1191 302.231 33.9127 293.06 48.4617 293.06C55.1793 293.06 61.3058 295.017 65.9588 297.673C66.2843 298.355 66.4359 299.033 66.3748 299.677C66.0728 302.831 60.9298 304.77 57.977 305.409C50.5427 307.019 46.9119 302.574 40.7818 302.743C36.9924 302.847 31.7401 304.751 25.5114 312.814C23.3553 311.343 22.1191 309.645 22.1191 307.834V307.835Z" fill="url(#paint57_linear_3_1162)"/>
<path d="M47.0194 298.151C48.0722 298.413 49.0545 298.402 49.9781 298.167C50.8159 297.955 51.3916 297.179 51.3916 296.314V266.611H45.5342V296.279C45.5342 297.171 46.1558 297.935 47.0206 298.15L47.0194 298.151Z" fill="white"/>
<path style="mix-blend-mode:multiply" opacity="0.65" d="M47.0194 298.151C48.0722 298.413 49.0545 298.402 49.9781 298.167C50.8159 297.955 51.3916 297.179 51.3916 296.314V266.611H45.5342V296.279C45.5342 297.171 46.1558 297.935 47.0206 298.15L47.0194 298.151Z" fill="url(#paint58_linear_3_1162)"/>
<path d="M79.412 254.11L70.4631 248.454C70.0906 246.341 65.8723 224.234 48.7489 217.292C41.7846 214.47 34.2904 214.805 30.1778 214.988C21.968 215.355 16.1118 215.617 13.2953 219.533C9.67858 224.562 15.744 229.122 14.4879 243.507C13.9756 249.373 12.6725 251.979 14.2952 255.864C16.2387 260.52 20.746 263.1 24.2511 264.553C28.44 266.985 35.7345 270.452 45.3684 271.296C61.5965 272.718 73.7108 265.757 77.8763 263.093C79.7292 262.509 81.1205 260.969 81.5141 259.066C81.9136 257.138 81.0758 255.163 79.4108 254.111L79.412 254.11Z" fill="url(#paint59_linear_3_1162)"/>
<g style="mix-blend-mode:soft-light" opacity="0.26">
<path d="M75.2981 258.138C74.9679 256.149 69.423 257.797 64.1789 253.902C56.3404 248.079 60.4083 238.216 53.5897 228.753C47.3316 220.07 34.7343 215.65 30.8227 218.958C25.6174 223.362 38.358 239.834 30.8227 250.462C27.1625 255.625 21.5859 255.376 21.5577 258.404C21.5119 263.188 35.3911 268.705 48.5607 268.463C62.7184 268.203 75.8233 261.295 75.2981 258.138Z" fill="white"/>
</g>
<path d="M190.737 201.929C190.046 202.609 188.93 202.601 188.248 201.91L180.895 194.446C180.213 193.755 180.223 192.639 180.914 191.958L184.474 188.45C185.165 187.77 186.281 187.778 186.963 188.469L194.316 195.933C194.996 196.624 194.988 197.74 194.297 198.421L190.737 201.929Z" fill="url(#paint60_linear_3_1162)"/>
<path d="M184.758 188.739L181.198 192.246C180.665 192.771 180.659 193.63 181.184 194.164L188.537 201.627C189.062 202.161 189.921 202.167 190.455 201.641L194.015 198.134C194.549 197.609 194.554 196.75 194.029 196.216L186.676 188.753C186.151 188.219 185.292 188.213 184.758 188.739Z" fill="url(#paint61_linear_3_1162)"/>
<path d="M189.566 202.533C188.603 202.935 187.493 202.48 187.091 201.518L182.746 191.127C182.344 190.165 182.799 189.054 183.761 188.653L188.717 186.58C189.68 186.178 190.79 186.633 191.192 187.595L195.537 197.986C195.939 198.948 195.484 200.058 194.522 200.46L189.566 202.533Z" fill="url(#paint62_linear_3_1162)"/>
<path d="M188.885 186.98L183.929 189.053C183.186 189.363 182.836 190.217 183.146 190.96L187.491 201.351C187.802 202.093 188.656 202.443 189.398 202.133L194.355 200.06C195.097 199.75 195.447 198.896 195.137 198.153L190.792 187.763C190.482 187.02 189.628 186.67 188.885 186.98Z" fill="url(#paint63_linear_3_1162)"/>
<path d="M189.951 202.015C188.925 202.204 187.937 201.524 187.748 200.498L185.705 189.423C185.516 188.397 186.197 187.409 187.222 187.22L192.505 186.245C193.531 186.056 194.519 186.737 194.708 187.762L196.751 198.838C196.94 199.864 196.259 200.852 195.234 201.041L189.951 202.015Z" fill="url(#paint64_linear_3_1162)"/>
<path d="M192.584 186.672L187.301 187.646C186.509 187.792 185.986 188.552 186.132 189.344L188.174 200.419C188.32 201.211 189.08 201.734 189.872 201.589L195.155 200.615C195.947 200.469 196.47 199.709 196.324 198.917L194.282 187.841C194.136 187.049 193.376 186.526 192.584 186.672Z" fill="url(#paint65_linear_3_1162)"/>
<path d="M199.625 286.375C199.625 286.375 191.124 286.966 190.999 287.521C190.874 288.076 196.77 290.221 198.828 290.302C200.888 290.382 202.582 289.774 202.395 288.902C202.209 288.029 201.488 285.835 201.488 285.835L199.625 286.377V286.375Z" fill="url(#paint66_linear_3_1162)"/>
<path d="M199.223 282.6L199.072 286.611C199.072 286.611 200.365 287.341 201.392 286.921L202.533 282.691L199.223 282.6Z" fill="url(#paint67_linear_3_1162)"/>
<path d="M175.85 284.759C175.85 284.759 167.349 285.35 167.225 285.905C167.1 286.459 172.994 288.605 175.054 288.686C177.113 288.766 178.808 288.157 178.621 287.286C178.434 286.412 177.714 284.219 177.714 284.219L175.849 284.76L175.85 284.759Z" fill="url(#paint68_linear_3_1162)"/>
<path d="M175.448 280.981L175.298 284.992C175.298 284.992 176.592 285.722 177.617 285.302L178.758 281.071L175.448 280.979V280.981Z" fill="url(#paint69_linear_3_1162)"/>
<path d="M198.319 283.165C199.908 283.342 201.496 283.519 203.084 283.695C205.229 281.317 208.431 277.172 210.143 271.341C213.443 260.101 208.664 252.002 211.732 249.987C216.074 247.134 225.484 263.559 240.588 263.137C246.785 262.965 254.874 259.93 257.983 253.319C258.453 252.321 260.757 247.097 258.513 242.2C256.194 237.144 244.696 234.943 221.791 230.748C211.96 228.948 206.996 228.049 205 229.002C190.864 235.75 196.759 273.91 198.318 283.164L198.319 283.165Z" fill="url(#paint70_linear_3_1162)"/>
<path d="M174.069 283.233C175.711 283.519 177.354 283.806 178.998 284.091C180.993 281.151 184.014 276.547 187.391 270.703C194.432 258.522 194.302 256.047 197.556 254.479C204.443 251.16 209.646 260.126 226.676 262.597C232.247 263.405 244.615 265.202 249.62 258.537C251.649 255.836 252.813 251.283 251.208 247.418C248.329 240.491 238.849 241.323 207.616 235.24C195.436 232.868 193.776 232.445 190.826 233.494C174.348 239.353 174.028 275.229 174.069 283.231V283.233Z" fill="url(#paint71_linear_3_1162)"/>
<path d="M208.189 187.841C209.811 183.875 213.291 181.596 215.096 180.412C215.999 179.82 216.834 179.377 217.681 179.031C224.216 176.362 230.742 176.545 231.907 176.634C234.729 176.845 241.7 177.367 246.866 181.842C249.366 184.009 251.365 187.034 254.278 204.08C258.342 227.854 255.044 225.417 258.248 235.053C259.945 240.152 262.586 246.003 259.792 249.738C258.89 250.945 257.6 251.291 254.971 252.475C245.15 256.894 236.345 256.133 230.994 255.603C225.106 255.02 222.129 254.686 220.569 252.605C218.076 249.282 220.642 245.059 221.091 237.749C221.413 232.502 220.219 228.344 217.832 220.027C212.285 200.693 205.082 195.436 208.189 187.84V187.841Z" fill="url(#paint72_linear_3_1162)"/>
<path d="M222.071 172.239C221.016 170.644 222.595 167.576 223.22 166.362C223.241 166.32 223.27 166.266 223.328 166.157C224.288 164.386 224.534 164.144 224.992 163.837L225.629 163.445C225.629 163.445 225.666 163.431 225.704 163.417C226.113 163.271 227.506 163.229 227.788 163.29C228.689 163.482 229.648 167.153 229.374 172.343C229.411 172.542 229.447 172.74 229.482 172.942C229.624 173.761 229.737 174.565 229.824 175.351C229.907 176.102 230.973 176.086 231.727 176.037C234.789 175.842 236.289 176.102 236.419 176.559C236.664 177.413 233.032 180.208 228.545 180.836C222.526 180.881 217.63 180.24 218.156 179.292C218.39 178.872 223.053 177.653 224.365 176.445C225.566 175.34 225.468 174.197 225.567 173.38C224.946 173.412 222.876 173.456 222.071 172.24V172.239Z" fill="url(#paint73_linear_3_1162)"/>
<path d="M223.761 161.972C223.266 163.063 224.467 165.255 224.91 165.573C224.959 165.608 225.24 165.83 225.492 166.209C225.527 166.26 225.557 166.32 225.584 166.399C225.937 167.412 224.326 168.605 224.636 169.058C224.861 169.387 225.957 168.948 226.087 169.231C226.209 169.499 225.3 170.052 225.44 170.373C225.544 170.615 226.105 170.394 226.458 170.764C226.731 171.051 226.763 171.456 226.77 171.66C226.813 173.1 223.547 178.303 222.866 180.65C222.145 183.14 223.436 185.508 228.126 192.057C234.796 201.371 238.132 206.028 239.986 207.359C249.049 213.865 259.706 213.067 264.076 212.389C269.326 211.574 280.173 209.889 283.666 201.535C287.681 191.933 279.776 178.793 271.665 176.563C267.955 175.543 265.981 177.093 261.163 175.416C255.843 173.564 256.488 170.291 251.562 168.358C244.993 165.779 240.755 170.388 236.279 167.032C233.843 165.205 234.245 163.201 231.249 161.738C228.294 160.295 224.41 160.541 223.762 161.972H223.761Z" fill="#26264F"/>
<path d="M225.214 168.679C225.608 168.138 226.301 168.646 226.305 169.347C226.308 170.047 225.63 170.776 224.971 170.637C224.312 170.498 224.683 169.407 225.214 168.678V168.679Z" fill="url(#paint74_linear_3_1162)"/>
<path style="mix-blend-mode:multiply" opacity="0.3" d="M236.076 248.697C234.344 245.248 238.588 240.663 235.815 235.405C233.46 230.939 229.182 231.94 227.214 227.848C224.838 222.904 230.006 219.21 229.82 211.689C229.599 202.699 221.863 193.698 217.31 194.488C214.364 194.999 213.986 199.394 211.913 204.204C213.747 208.225 215.889 213.263 217.83 220.029C220.217 228.346 221.41 232.504 221.089 237.752C220.641 245.062 218.074 249.285 220.567 252.607C222.129 254.687 225.104 255.022 230.992 255.605C236.343 256.135 245.148 256.896 254.969 252.477C256.212 251.918 257.143 251.498 257.902 251.086C242.559 253.39 237.447 251.434 236.074 248.698L236.076 248.697Z" fill="url(#paint75_linear_3_1162)"/>
<path d="M186.49 202.705C187.557 202.016 188.623 201.328 189.69 200.639C196.36 206.717 199.083 207.287 200.3 206.526C201.297 205.903 201.026 204.47 202.301 200.176C202.776 198.577 203.43 196.565 204.41 193.965C207.974 184.505 212.017 182.074 214.054 181.195C215.191 180.704 215.977 180.378 216.921 180.609C221.265 181.67 222.701 192.99 221.482 201.459C220.796 206.231 219.449 215.588 211.774 220.029C211.633 220.111 211.41 220.239 211.115 220.398C211.115 220.398 205.551 223.31 198.743 221.398C192.485 219.641 187.006 212.189 186.491 202.708L186.49 202.705Z" fill="url(#paint76_linear_3_1162)"/>
<path d="M189.69 200.639C189.69 200.639 188.631 200.047 188.731 197.931C188.883 194.742 187.605 195.189 187.605 195.189C187.605 195.189 188.281 198.476 186.762 198.934C185.242 199.393 183.747 197.341 183.747 197.341L182.044 195.612C182.044 195.612 184.743 201.284 187.014 202.435C189.286 203.584 189.689 200.64 189.689 200.64L189.69 200.639Z" fill="url(#paint77_linear_3_1162)"/>
<path d="M234.746 313.775C249.295 313.775 261.088 308.962 261.088 303.024C261.088 297.086 249.295 292.272 234.746 292.272C220.197 292.272 208.403 297.086 208.403 303.024C208.403 308.962 220.197 313.775 234.746 313.775Z" fill="#B7C0CE"/>
<path d="M261.088 301.763C261.088 307.368 249.295 311.912 234.746 311.912C220.197 311.912 208.403 307.368 208.403 301.763C208.403 296.158 220.197 286.987 234.746 286.987C249.295 286.987 261.088 296.158 261.088 301.763Z" fill="white"/>
<path style="mix-blend-mode:multiply" opacity="0.3" d="M261.088 301.763C261.088 296.158 249.295 286.987 234.746 286.987C228.028 286.987 221.902 288.945 217.249 291.6C216.923 292.283 216.772 292.961 216.833 293.605C217.135 296.759 222.278 298.697 225.23 299.337C232.665 300.946 236.296 296.501 242.426 296.671C246.215 296.775 251.467 298.679 257.696 306.742C259.852 305.27 261.088 303.571 261.088 301.762V301.763Z" fill="url(#paint78_linear_3_1162)"/>
<path d="M236.189 292.079C235.136 292.341 234.154 292.33 233.23 292.095C232.392 291.882 231.816 291.107 231.816 290.242V260.539H237.674V290.207C237.674 291.099 237.052 291.863 236.187 292.078L236.189 292.079Z" fill="white"/>
<path style="mix-blend-mode:multiply" opacity="0.65" d="M236.189 292.079C235.136 292.341 234.154 292.33 233.23 292.095C232.392 291.882 231.816 291.107 231.816 290.242V260.539H237.674V290.207C237.674 291.099 237.052 291.863 236.187 292.078L236.189 292.079Z" fill="url(#paint79_linear_3_1162)"/>
<path d="M203.796 248.038L212.744 242.381C213.117 240.269 217.335 218.162 234.459 211.22C241.423 208.398 248.917 208.733 253.03 208.916C261.24 209.282 267.096 209.545 269.912 213.461C273.529 218.49 267.464 223.05 268.72 237.435C269.232 243.3 270.534 245.905 268.912 249.792C266.969 254.448 262.462 257.028 258.956 258.48C254.768 260.913 247.473 264.38 237.839 265.224C221.611 266.645 209.497 259.685 205.331 257.021C203.478 256.437 202.087 254.896 201.692 252.994C201.293 251.066 202.131 249.091 203.796 248.039V248.038Z" fill="url(#paint80_linear_3_1162)"/>
<g style="mix-blend-mode:soft-light" opacity="0.26">
<path d="M207.91 252.066C208.241 250.076 213.785 251.725 219.029 247.83C226.867 242.006 222.8 232.143 229.618 222.681C235.876 213.998 248.474 209.577 252.385 212.886C257.59 217.29 244.85 233.761 252.385 244.389C256.045 249.552 261.622 249.303 261.65 252.331C261.696 257.116 247.817 262.633 234.647 262.391C220.489 262.131 207.385 255.223 207.91 252.066Z" fill="white"/>
</g>
<defs>
<linearGradient id="paint0_linear_3_1162" x1="112.873" y1="147.834" x2="93.1877" y2="90.6048" gradientUnits="userSpaceOnUse">
<stop stop-color="#6165D7"/>
<stop offset="1" stop-color="#AA80F9"/>
</linearGradient>
<linearGradient id="paint1_linear_3_1162" x1="44.7256" y1="73.0311" x2="109.325" y2="232.918" gradientUnits="userSpaceOnUse">
<stop stop-color="#E38DDD"/>
<stop offset="1" stop-color="#9571F6"/>
</linearGradient>
<linearGradient id="paint2_linear_3_1162" x1="255.718" y1="-25.7784" x2="74.0226" y2="186.201" gradientUnits="userSpaceOnUse">
<stop stop-color="#D8DEE8"/>
<stop offset="1" stop-color="white"/>
</linearGradient>
<linearGradient id="paint3_linear_3_1162" x1="174.033" y1="1.66807" x2="99.4351" y2="289.403" gradientUnits="userSpaceOnUse">
<stop stop-color="#444B8C"/>
<stop offset="1" stop-color="#26264F"/>
</linearGradient>
<linearGradient id="paint4_linear_3_1162" x1="126.345" y1="-10.6955" x2="51.7474" y2="277.038" gradientUnits="userSpaceOnUse">
<stop stop-color="#444B8C"/>
<stop offset="1" stop-color="#26264F"/>
</linearGradient>
<linearGradient id="paint5_linear_3_1162" x1="227.928" y1="15.6412" x2="153.33" y2="303.375" gradientUnits="userSpaceOnUse">
<stop stop-color="#444B8C"/>
<stop offset="1" stop-color="#26264F"/>
</linearGradient>
<linearGradient id="paint6_linear_3_1162" x1="176.958" y1="111.772" x2="159.395" y2="14.2694" gradientUnits="userSpaceOnUse">
<stop stop-color="#D8DEE8"/>
<stop offset="1" stop-color="white"/>
</linearGradient>
<linearGradient id="paint7_linear_3_1162" x1="123.28" y1="95.0995" x2="229.775" y2="123.635" gradientUnits="userSpaceOnUse">
<stop stop-color="#FF9085"/>
<stop offset="1" stop-color="#FB6FBB"/>
</linearGradient>
<linearGradient id="paint8_linear_3_1162" x1="173.77" y1="26.3428" x2="134.033" y2="69.8861" gradientUnits="userSpaceOnUse">
<stop stop-color="#FF9085"/>
<stop offset="1" stop-color="#FB6FBB"/>
</linearGradient>
<linearGradient id="paint9_linear_3_1162" x1="215.285" y1="165.958" x2="175.548" y2="209.5" gradientUnits="userSpaceOnUse">
<stop stop-color="#FF9085"/>
<stop offset="1" stop-color="#FB6FBB"/>
</linearGradient>
<linearGradient id="paint10_linear_3_1162" x1="187.195" y1="190.99" x2="221.919" y2="2.84035" gradientUnits="userSpaceOnUse">
<stop stop-color="#D8DEE8"/>
<stop offset="1" stop-color="white"/>
</linearGradient>
<linearGradient id="paint11_linear_3_1162" x1="268.698" y1="59.6593" x2="60.2227" y2="271.551" gradientUnits="userSpaceOnUse">
<stop stop-color="#444B8C"/>
<stop offset="1" stop-color="#26264F"/>
</linearGradient>
<linearGradient id="paint12_linear_3_1162" x1="233.579" y1="25.1078" x2="25.1042" y2="236.999" gradientUnits="userSpaceOnUse">
<stop stop-color="#444B8C"/>
<stop offset="1" stop-color="#26264F"/>
</linearGradient>
<linearGradient id="paint13_linear_3_1162" x1="308.389" y1="98.7104" x2="99.9126" y2="310.601" gradientUnits="userSpaceOnUse">
<stop stop-color="#444B8C"/>
<stop offset="1" stop-color="#26264F"/>
</linearGradient>
<linearGradient id="paint14_linear_3_1162" x1="143.327" y1="219.252" x2="281.405" y2="113.878" gradientUnits="userSpaceOnUse">
<stop stop-color="#D8DEE8"/>
<stop offset="1" stop-color="white"/>
</linearGradient>
<linearGradient id="paint15_linear_3_1162" x1="182.321" y1="120.773" x2="260.277" y2="198.729" gradientUnits="userSpaceOnUse">
<stop stop-color="#FF9085"/>
<stop offset="1" stop-color="#FB6FBB"/>
</linearGradient>
<linearGradient id="paint16_linear_3_1162" x1="260.423" y1="86.4716" x2="204.239" y2="104.312" gradientUnits="userSpaceOnUse">
<stop stop-color="#FF9085"/>
<stop offset="1" stop-color="#FB6FBB"/>
</linearGradient>
<linearGradient id="paint17_linear_3_1162" x1="226.569" y1="228.137" x2="170.385" y2="245.977" gradientUnits="userSpaceOnUse">
<stop stop-color="#FF9085"/>
<stop offset="1" stop-color="#FB6FBB"/>
</linearGradient>
<linearGradient id="paint18_linear_3_1162" x1="261.434" y1="142.377" x2="169.696" y2="171.507" gradientUnits="userSpaceOnUse">
<stop stop-color="#FF9085"/>
<stop offset="1" stop-color="#FB6FBB"/>
</linearGradient>
<linearGradient id="paint19_linear_3_1162" x1="119.13" y1="273.982" x2="110.566" y2="274.754" gradientUnits="userSpaceOnUse">
<stop stop-color="#444B8C"/>
<stop offset="1" stop-color="#26264F"/>
</linearGradient>
<linearGradient id="paint20_linear_3_1162" x1="114.196" y1="274.332" x2="109.89" y2="266.804" gradientUnits="userSpaceOnUse">
<stop stop-color="#311944"/>
<stop offset="1" stop-color="#893976"/>
</linearGradient>
<linearGradient id="paint21_linear_3_1162" x1="148.771" y1="272.516" x2="139.846" y2="274.465" gradientUnits="userSpaceOnUse">
<stop stop-color="#444B8C"/>
<stop offset="1" stop-color="#26264F"/>
</linearGradient>
<linearGradient id="paint22_linear_3_1162" x1="143.194" y1="273.625" x2="138.225" y2="266.294" gradientUnits="userSpaceOnUse">
<stop stop-color="#311944"/>
<stop offset="1" stop-color="#893976"/>
</linearGradient>
<linearGradient id="paint23_linear_3_1162" x1="146.513" y1="257.52" x2="125.112" y2="201.368" gradientUnits="userSpaceOnUse">
<stop stop-color="#311944"/>
<stop offset="1" stop-color="#893976"/>
</linearGradient>
<linearGradient id="paint24_linear_3_1162" x1="138.662" y1="260.483" x2="117.202" y2="204.172" gradientUnits="userSpaceOnUse">
<stop stop-color="#311944"/>
<stop offset="1" stop-color="#893976"/>
</linearGradient>
<linearGradient id="paint25_linear_3_1162" x1="132.827" y1="260.547" x2="104.704" y2="207.439" gradientUnits="userSpaceOnUse">
<stop stop-color="#311944"/>
<stop offset="1" stop-color="#893976"/>
</linearGradient>
<linearGradient id="paint26_linear_3_1162" x1="73.1701" y1="114.228" x2="70.9117" y2="143.736" gradientUnits="userSpaceOnUse">
<stop stop-color="#AB316D"/>
<stop offset="1" stop-color="#792D3D"/>
</linearGradient>
<linearGradient id="paint27_linear_3_1162" x1="174.886" y1="112.818" x2="177.144" y2="142.326" gradientUnits="userSpaceOnUse">
<stop stop-color="#AB316D"/>
<stop offset="1" stop-color="#792D3D"/>
</linearGradient>
<linearGradient id="paint28_linear_3_1162" x1="130.282" y1="105.626" x2="108.203" y2="178.63" gradientUnits="userSpaceOnUse">
<stop stop-color="#FFC444"/>
<stop offset="1" stop-color="#F36F56"/>
</linearGradient>
<linearGradient id="paint29_linear_3_1162" x1="74.8113" y1="163.386" x2="115.876" y2="163.386" gradientUnits="userSpaceOnUse">
<stop stop-color="#FFC444"/>
<stop offset="1" stop-color="#F36F56"/>
</linearGradient>
<linearGradient id="paint30_linear_3_1162" x1="125.99" y1="150.722" x2="122.619" y2="129.823" gradientUnits="userSpaceOnUse">
<stop stop-color="#AB316D"/>
<stop offset="1" stop-color="#792D3D"/>
</linearGradient>
<linearGradient id="paint31_linear_3_1162" x1="123.312" y1="128.59" x2="110.214" y2="114.336" gradientUnits="userSpaceOnUse">
<stop stop-color="#AB316D"/>
<stop offset="1" stop-color="#792D3D"/>
</linearGradient>
<linearGradient id="paint32_linear_3_1162" x1="131.893" y1="116.793" x2="109.549" y2="153.968" gradientUnits="userSpaceOnUse">
<stop stop-color="#444B8C"/>
<stop offset="1" stop-color="#26264F"/>
</linearGradient>
<linearGradient id="paint33_linear_3_1162" x1="120.666" y1="131.021" x2="107.568" y2="116.767" gradientUnits="userSpaceOnUse">
<stop stop-color="#AB316D"/>
<stop offset="1" stop-color="#792D3D"/>
</linearGradient>
<linearGradient id="paint34_linear_3_1162" x1="62.4053" y1="102.324" x2="68.4829" y2="123.078" gradientUnits="userSpaceOnUse">
<stop stop-color="#FF9085"/>
<stop offset="1" stop-color="#FB6FBB"/>
</linearGradient>
<linearGradient id="paint35_linear_3_1162" x1="62.605" y1="103.004" x2="68.3576" y2="122.652" gradientUnits="userSpaceOnUse">
<stop stop-color="white"/>
<stop offset="1" stop-color="#D8DEE8"/>
</linearGradient>
<linearGradient id="paint36_linear_3_1162" x1="69.0461" y1="100.237" x2="66.7942" y2="123.374" gradientUnits="userSpaceOnUse">
<stop stop-color="#FF9085"/>
<stop offset="1" stop-color="#FB6FBB"/>
</linearGradient>
<linearGradient id="paint37_linear_3_1162" x1="68.9681" y1="100.986" x2="66.8367" y2="122.888" gradientUnits="userSpaceOnUse">
<stop stop-color="white"/>
<stop offset="1" stop-color="#D8DEE8"/>
</linearGradient>
<linearGradient id="paint38_linear_3_1162" x1="74.1142" y1="100.428" x2="67.0082" y2="122.562" gradientUnits="userSpaceOnUse">
<stop stop-color="#FF9085"/>
<stop offset="1" stop-color="#FB6FBB"/>
</linearGradient>
<linearGradient id="paint39_linear_3_1162" x1="73.8823" y1="101.152" x2="67.1547" y2="122.106" gradientUnits="userSpaceOnUse">
<stop stop-color="white"/>
<stop offset="1" stop-color="#D8DEE8"/>
</linearGradient>
<linearGradient id="paint40_linear_3_1162" x1="92.2516" y1="186.401" x2="85.8969" y2="207.072" gradientUnits="userSpaceOnUse">
<stop stop-color="#FF9085"/>
<stop offset="1" stop-color="#FB6FBB"/>
</linearGradient>
<linearGradient id="paint41_linear_3_1162" x1="92.0436" y1="187.078" x2="86.027" y2="206.647" gradientUnits="userSpaceOnUse">
<stop stop-color="white"/>
<stop offset="1" stop-color="#D8DEE8"/>
</linearGradient>
<linearGradient id="paint42_linear_3_1162" x1="98.9527" y1="188.303" x2="84.3332" y2="206.375" gradientUnits="userSpaceOnUse">
<stop stop-color="#FF9085"/>
<stop offset="1" stop-color="#FB6FBB"/>
</linearGradient>
<linearGradient id="paint43_linear_3_1162" x1="98.4893" y1="188.896" x2="84.6502" y2="206.005" gradientUnits="userSpaceOnUse">
<stop stop-color="white"/>
<stop offset="1" stop-color="#D8DEE8"/>
</linearGradient>
<linearGradient id="paint44_linear_3_1162" x1="103.085" y1="191.252" x2="84.9664" y2="205.814" gradientUnits="userSpaceOnUse">
<stop stop-color="#FF9085"/>
<stop offset="1" stop-color="#FB6FBB"/>
</linearGradient>
<linearGradient id="paint45_linear_3_1162" x1="102.492" y1="191.729" x2="85.3399" y2="205.515" gradientUnits="userSpaceOnUse">
<stop stop-color="white"/>
<stop offset="1" stop-color="#D8DEE8"/>
</linearGradient>
<linearGradient id="paint46_linear_3_1162" x1="91.0664" y1="288.746" x2="85.6008" y2="292.377" gradientUnits="userSpaceOnUse">
<stop stop-color="#444B8C"/>
<stop offset="1" stop-color="#26264F"/>
</linearGradient>
<linearGradient id="paint47_linear_3_1162" x1="85.8876" y1="292.358" x2="85.4629" y2="283.827" gradientUnits="userSpaceOnUse">
<stop stop-color="#FFC444"/>
<stop offset="1" stop-color="#F36F56"/>
</linearGradient>
<linearGradient id="paint48_linear_3_1162" x1="90.6578" y1="288.128" x2="85.1921" y2="291.76" gradientUnits="userSpaceOnUse">
<stop stop-color="#444B8C"/>
<stop offset="1" stop-color="#26264F"/>
</linearGradient>
<linearGradient id="paint49_linear_3_1162" x1="106.422" y1="291.733" x2="101.519" y2="296.094" gradientUnits="userSpaceOnUse">
<stop stop-color="#444B8C"/>
<stop offset="1" stop-color="#26264F"/>
</linearGradient>
<linearGradient id="paint50_linear_3_1162" x1="101.467" y1="296.348" x2="99.8225" y2="287.966" gradientUnits="userSpaceOnUse">
<stop stop-color="#FFC444"/>
<stop offset="1" stop-color="#F36F56"/>
</linearGradient>
<linearGradient id="paint51_linear_3_1162" x1="105.929" y1="291.179" x2="101.025" y2="295.54" gradientUnits="userSpaceOnUse">
<stop stop-color="#444B8C"/>
<stop offset="1" stop-color="#26264F"/>
</linearGradient>
<linearGradient id="paint52_linear_3_1162" x1="53.9363" y1="197.637" x2="37.5167" y2="245.28" gradientUnits="userSpaceOnUse">
<stop stop-color="#FFC444"/>
<stop offset="1" stop-color="#F36F56"/>
</linearGradient>
<linearGradient id="paint53_linear_3_1162" x1="80.7453" y1="212.273" x2="46.0825" y2="245.373" gradientUnits="userSpaceOnUse">
<stop stop-color="#FFC444"/>
<stop offset="1" stop-color="#F36F56"/>
</linearGradient>
<linearGradient id="paint54_linear_3_1162" x1="79.1304" y1="206.322" x2="62.712" y2="253.965" gradientUnits="userSpaceOnUse">
<stop stop-color="#FFC444"/>
<stop offset="1" stop-color="#F36F56"/>
</linearGradient>
<linearGradient id="paint55_linear_3_1162" x1="44.1001" y1="237.929" x2="72.5143" y2="258.225" gradientUnits="userSpaceOnUse">
<stop stop-color="#444B8C"/>
<stop offset="1" stop-color="#26264F"/>
</linearGradient>
<linearGradient id="paint56_linear_3_1162" x1="105.383" y1="262.782" x2="35.0162" y2="262.782" gradientUnits="userSpaceOnUse">
<stop stop-color="#444B8C"/>
<stop offset="1" stop-color="#26264F"/>
</linearGradient>
<linearGradient id="paint57_linear_3_1162" x1="66.3877" y1="302.938" x2="22.1191" y2="302.938" gradientUnits="userSpaceOnUse">
<stop stop-color="#AA80F9"/>
<stop offset="1" stop-color="#6165D7"/>
</linearGradient>
<linearGradient id="paint58_linear_3_1162" x1="51.3916" y1="282.479" x2="45.533" y2="282.479" gradientUnits="userSpaceOnUse">
<stop stop-color="#AA80F9"/>
<stop offset="1" stop-color="#6165D7"/>
</linearGradient>
<linearGradient id="paint59_linear_3_1162" x1="19.3842" y1="276.25" x2="30.1238" y2="262.255" gradientUnits="userSpaceOnUse">
<stop stop-color="#311944"/>
<stop offset="1" stop-color="#893976"/>
</linearGradient>
<linearGradient id="paint60_linear_3_1162" x1="183.873" y1="182.445" x2="189.95" y2="203.2" gradientUnits="userSpaceOnUse">
<stop stop-color="#FF9085"/>
<stop offset="1" stop-color="#FB6FBB"/>
</linearGradient>
<linearGradient id="paint61_linear_3_1162" x1="184.073" y1="183.125" x2="189.826" y2="202.772" gradientUnits="userSpaceOnUse">
<stop stop-color="white"/>
<stop offset="1" stop-color="#D8DEE8"/>
</linearGradient>
<linearGradient id="paint62_linear_3_1162" x1="190.507" y1="180.357" x2="188.255" y2="203.495" gradientUnits="userSpaceOnUse">
<stop stop-color="#FF9085"/>
<stop offset="1" stop-color="#FB6FBB"/>
</linearGradient>
<linearGradient id="paint63_linear_3_1162" x1="190.433" y1="181.115" x2="188.3" y2="203.017" gradientUnits="userSpaceOnUse">
<stop stop-color="white"/>
<stop offset="1" stop-color="#D8DEE8"/>
</linearGradient>
<linearGradient id="paint64_linear_3_1162" x1="195.584" y1="180.553" x2="188.478" y2="202.687" gradientUnits="userSpaceOnUse">
<stop stop-color="#FF9085"/>
<stop offset="1" stop-color="#FB6FBB"/>
</linearGradient>
<linearGradient id="paint65_linear_3_1162" x1="195.352" y1="181.278" x2="188.625" y2="202.231" gradientUnits="userSpaceOnUse">
<stop stop-color="white"/>
<stop offset="1" stop-color="#D8DEE8"/>
</linearGradient>
<linearGradient id="paint66_linear_3_1162" x1="195.609" y1="274.335" x2="197.51" y2="298.526" gradientUnits="userSpaceOnUse">
<stop stop-color="#26264F"/>
<stop offset="1" stop-color="#444B8C"/>
</linearGradient>
<linearGradient id="paint67_linear_3_1162" x1="200.042" y1="287.702" x2="204.599" y2="259.127" gradientUnits="userSpaceOnUse">
<stop stop-color="#FFC444"/>
<stop offset="1" stop-color="#F36F56"/>
</linearGradient>
<linearGradient id="paint68_linear_3_1162" x1="171.835" y1="272.719" x2="173.735" y2="296.909" gradientUnits="userSpaceOnUse">
<stop stop-color="#26264F"/>
<stop offset="1" stop-color="#444B8C"/>
</linearGradient>
<linearGradient id="paint69_linear_3_1162" x1="176.269" y1="286.083" x2="180.825" y2="257.506" gradientUnits="userSpaceOnUse">
<stop stop-color="#FFC444"/>
<stop offset="1" stop-color="#F36F56"/>
</linearGradient>
<linearGradient id="paint70_linear_3_1162" x1="242.914" y1="222.967" x2="232.061" y2="239.115" gradientUnits="userSpaceOnUse">
<stop stop-color="#893976"/>
<stop offset="1" stop-color="#311944"/>
</linearGradient>
<linearGradient id="paint71_linear_3_1162" x1="174.066" y1="258.523" x2="251.96" y2="258.523" gradientUnits="userSpaceOnUse">
<stop stop-color="#893976"/>
<stop offset="1" stop-color="#311944"/>
</linearGradient>
<linearGradient id="paint72_linear_3_1162" x1="215.717" y1="200.068" x2="250.388" y2="233.175" gradientUnits="userSpaceOnUse">
<stop stop-color="#E38DDD"/>
<stop offset="1" stop-color="#9571F6"/>
</linearGradient>
<linearGradient id="paint73_linear_3_1162" x1="220.157" y1="161.82" x2="234.04" y2="193.677" gradientUnits="userSpaceOnUse">
<stop stop-color="#FFC444"/>
<stop offset="1" stop-color="#F36F56"/>
</linearGradient>
<linearGradient id="paint74_linear_3_1162" x1="221.509" y1="160.763" x2="237.011" y2="196.332" gradientUnits="userSpaceOnUse">
<stop stop-color="#FFC444"/>
<stop offset="1" stop-color="#F36F56"/>
</linearGradient>
<linearGradient id="paint75_linear_3_1162" x1="206.231" y1="209.998" x2="240.894" y2="243.097" gradientUnits="userSpaceOnUse">
<stop stop-color="#FF9085"/>
<stop offset="1" stop-color="#FB6FBB"/>
</linearGradient>
<linearGradient id="paint76_linear_3_1162" x1="209.804" y1="203.63" x2="249.903" y2="241.92" gradientUnits="userSpaceOnUse">
<stop stop-color="#E38DDD"/>
<stop offset="1" stop-color="#9571F6"/>
</linearGradient>
<linearGradient id="paint77_linear_3_1162" x1="185.872" y1="198.081" x2="184.812" y2="207.014" gradientUnits="userSpaceOnUse">
<stop stop-color="#FFC444"/>
<stop offset="1" stop-color="#F36F56"/>
</linearGradient>
<linearGradient id="paint78_linear_3_1162" x1="216.82" y1="296.866" x2="261.088" y2="296.866" gradientUnits="userSpaceOnUse">
<stop stop-color="#AA80F9"/>
<stop offset="1" stop-color="#6165D7"/>
</linearGradient>
<linearGradient id="paint79_linear_3_1162" x1="231.818" y1="276.406" x2="237.675" y2="276.406" gradientUnits="userSpaceOnUse">
<stop stop-color="#AA80F9"/>
<stop offset="1" stop-color="#6165D7"/>
</linearGradient>
<linearGradient id="paint80_linear_3_1162" x1="263.823" y1="270.177" x2="253.085" y2="256.183" gradientUnits="userSpaceOnUse">
<stop stop-color="#311944"/>
<stop offset="1" stop-color="#893976"/>
</linearGradient>
</defs>
</svg>
